<svg width="837" height="227" viewBox="0 0 837 227" fill="none" xmlns="http://www.w3.org/2000/svg">
<path id="svg-fill" d="M21.243 219.054C18.843 219.054 16.943 218.454 15.543 217.254C14.343 215.854 13.743 213.954 13.743 211.554V15.0542C13.743 12.6542 14.343 10.8542 15.543 9.65421C16.943 8.2542 18.843 7.5542 21.243 7.5542H78.843C112.043 7.5542 137.543 16.5542 155.343 34.5542C173.343 52.3542 182.343 78.5542 182.343 113.154C182.343 130.354 180.043 145.554 175.443 158.754C170.843 171.954 164.143 183.054 155.343 192.054C146.543 200.854 135.743 207.554 122.943 212.154C110.143 216.754 95.443 219.054 78.843 219.054H21.243ZM26.343 207.354H77.643C92.843 207.354 106.143 205.354 117.543 201.354C128.943 197.354 138.443 191.454 146.043 183.654C153.643 175.854 159.343 166.054 163.143 154.254C166.943 142.454 168.843 128.754 168.843 113.154C168.843 81.9542 161.243 58.5542 146.043 42.9542C130.843 27.1542 108.043 19.2542 77.643 19.2542H26.343V207.354Z" fill="#fff" />
<path id="svg-stroke" d="M393.343 216.804L297.843 9.8042L202.343 216.804" stroke="#fff" stroke-width="12" stroke-linecap="round" stroke-linejoin="round"/>
<path id="svg-fill" d="M527.077 117.785L521.589 118.154C521.748 120.515 523.399 122.51 525.689 123.107C527.979 123.704 530.395 122.769 531.686 120.786L527.077 117.785ZM413.405 42.6452L417.87 39.4332C417.031 38.267 415.769 37.4754 414.354 37.2276L413.405 42.6452ZM431.527 134.738L426.042 135.142L431.527 134.738ZM630.173 134.738L624.688 134.334L630.173 134.738ZM648.295 42.6452L648.152 37.147C646.433 37.1918 644.835 38.0376 643.831 39.4332L648.295 42.6452ZM481.954 48.0792C479.665 50.0763 479.429 53.5507 481.426 55.8394C483.423 58.1282 486.898 58.3646 489.186 56.3675L481.954 48.0792ZM538.543 6L542.074 1.78328C539.999 0.0451221 536.967 0.0759149 534.927 1.85587L538.543 6ZM589.579 55.9127C591.908 57.863 595.377 57.556 597.327 55.2272C599.277 52.8984 598.97 49.4295 596.641 47.4793L589.579 55.9127ZM532.564 117.416C530.989 93.9684 522.428 76.8744 510.271 64.6386C498.211 52.5008 482.935 45.4595 468.323 41.4207C453.698 37.3782 439.446 36.2614 429.083 36.1754C423.89 36.1323 419.618 36.3478 416.696 36.599C415.251 36.7232 414.068 36.8619 413.239 36.9952C412.916 37.0472 412.336 37.1449 411.794 37.3153C411.649 37.3611 411.325 37.4673 410.947 37.6534C410.759 37.7457 410.423 37.9229 410.046 38.2066C409.738 38.4385 408.965 39.0616 408.416 40.1705C407.728 41.558 407.564 43.4135 408.456 45.1429C409.169 46.5238 410.241 47.1902 410.664 47.4277C411.532 47.9144 412.329 48.0404 412.457 48.0627L414.354 37.2276C414.434 37.2415 415.196 37.3576 416.044 37.8331C416.458 38.0649 417.523 38.7252 418.232 40.0998C419.121 41.8228 418.957 43.6716 418.273 45.0521C417.727 46.154 416.961 46.7697 416.663 46.9939C416.296 47.27 415.974 47.4392 415.803 47.5232C415.459 47.6926 415.182 47.7811 415.096 47.808C414.795 47.9028 414.664 47.9073 414.986 47.8556C415.446 47.7816 416.335 47.6705 417.638 47.5586C420.211 47.3374 424.138 47.1348 428.992 47.175C438.724 47.2558 451.963 48.3112 465.392 52.0231C478.835 55.7387 492.177 62.034 502.467 72.3916C512.661 82.6513 520.182 97.2117 521.589 118.154L532.564 117.416ZM408.941 45.8572C410.921 48.6107 412.913 53.0359 414.792 59.1044C416.647 65.0914 418.287 72.325 419.729 80.436C422.611 96.6557 424.632 116.003 426.042 135.142L437.012 134.334C435.59 115.028 433.536 95.2608 430.559 78.5113C429.071 70.1377 427.336 62.423 425.3 55.8499C423.289 49.3582 420.876 43.6115 417.87 39.4332L408.941 45.8572ZM426.042 135.142C429.841 186.71 475.917 226.108 530.772 226.108V215.108C480.959 215.108 440.337 179.465 437.012 134.334L426.042 135.142ZM530.772 226.108H530.928V215.108H530.772V226.108ZM530.928 226.108C585.784 226.108 631.859 186.71 635.658 135.142L624.688 134.334C621.363 179.465 580.742 215.108 530.928 215.108V226.108ZM635.658 135.142C637.069 116.003 639.089 96.6557 641.971 80.436C643.413 72.325 645.054 65.0914 646.908 59.1044C648.788 53.0359 650.779 48.6107 652.76 45.8572L643.831 39.4332C640.825 43.6115 638.411 49.3582 636.4 55.8499C634.365 62.423 632.629 70.1377 631.141 78.5113C628.164 95.2608 626.111 115.028 624.688 134.334L635.658 135.142ZM648.438 48.1433C648.66 48.1375 648.95 48.1228 649.271 48.0809C649.49 48.0524 650.163 47.9614 650.923 47.6275C651.29 47.4664 652.109 47.0661 652.861 46.2192C653.754 45.2127 654.484 43.6119 654.194 41.711C653.947 40.0966 653.077 39.0781 652.658 38.6529C652.194 38.1818 651.745 37.8933 651.501 37.7487C650.683 37.2631 649.85 37.0576 649.62 36.9989C649.204 36.8928 648.757 36.8058 648.313 36.7333C646.555 36.4463 643.831 36.2245 640.35 36.2575C633.337 36.3242 622.87 37.4292 610.361 41.434C585.236 49.4773 552.204 69.1126 522.468 114.784L531.686 120.786C560.073 77.187 591.057 59.1637 613.714 51.9103C625.095 48.2668 634.46 47.314 640.455 47.257C643.479 47.2283 645.552 47.4282 646.54 47.5896C646.655 47.6083 646.744 47.6247 646.809 47.6378C646.876 47.6512 646.905 47.6586 646.903 47.658C646.901 47.6575 646.885 47.6534 646.857 47.6453C646.83 47.6375 646.783 47.6229 646.719 47.6005C646.648 47.5758 646.309 47.4586 645.889 47.2093C645.683 47.0873 645.263 46.8205 644.82 46.3703C644.422 45.966 643.563 44.9674 643.32 43.372C643.032 41.4899 643.756 39.9071 644.634 38.9173C645.371 38.0873 646.166 37.7027 646.5 37.5559C647.195 37.251 647.767 37.184 647.847 37.1735C648.029 37.1497 648.144 37.1472 648.152 37.147L648.438 48.1433ZM489.186 56.3675L542.159 10.1441L534.927 1.85587L481.954 48.0792L489.186 56.3675ZM535.012 10.2167L589.579 55.9127L596.641 47.4793L542.074 1.78328L535.012 10.2167ZM528.55 105.9L467.679 202.919L476.997 208.766L537.867 111.746L528.55 105.9Z" fill="#fff"/>
<path id="svg-fill" d="M676.557 219.054C674.957 219.054 673.557 218.754 672.357 218.154C671.357 217.354 670.557 216.354 669.957 215.154C669.557 213.954 669.557 212.554 669.957 210.954C670.357 209.354 671.157 207.654 672.357 205.854L806.457 12.3542V19.2542H675.657C673.457 19.2542 671.757 18.7542 670.557 17.7542C669.357 16.5542 668.757 15.0542 668.757 13.2542C668.757 11.4542 669.357 10.0542 670.557 9.0542C671.757 8.0542 673.457 7.5542 675.657 7.5542H811.257C812.857 7.5542 814.157 7.9542 815.157 8.7542C816.357 9.35421 817.157 10.2542 817.557 11.4542C818.157 12.6542 818.257 14.0542 817.857 15.6542C817.457 17.2542 816.657 18.9542 815.457 20.7542L681.357 214.254V207.354H816.357C818.557 207.354 820.257 207.854 821.457 208.854C822.657 209.854 823.257 211.254 823.257 213.054C823.257 215.054 822.657 216.554 821.457 217.554C820.257 218.554 818.557 219.054 816.357 219.054H676.557Z" fill="#fff"/>
</svg>
