<svg width="247" height="227" viewBox="0 0 247 227" fill="none" xmlns="http://www.w3.org/2000/svg">
<path d="M119.734 117.785L114.246 118.154C114.405 120.515 116.056 122.51 118.346 123.107C120.636 123.704 123.052 122.769 124.343 120.786L119.734 117.785ZM6.06215 42.6452L10.5268 39.4332C9.68781 38.267 8.42583 37.4754 7.01073 37.2276L6.06215 42.6452ZM24.184 134.738L18.6988 135.142L18.6988 135.142L24.184 134.738ZM222.83 134.738L217.345 134.334L217.345 134.334L222.83 134.738ZM240.952 42.6452L240.809 37.147C239.09 37.1918 237.492 38.0376 236.488 39.4332L240.952 42.6452ZM74.6111 48.0792C72.3223 50.0763 72.0859 53.5507 74.083 55.8394C76.0802 58.1282 79.5545 58.3646 81.8433 56.3675L74.6111 48.0792ZM131.2 6L134.731 1.78328C132.656 0.0451222 129.624 0.0759148 127.584 1.85587L131.2 6ZM182.236 55.9127C184.565 57.863 188.034 57.556 189.984 55.2272C191.934 52.8984 191.627 49.4295 189.298 47.4793L182.236 55.9127ZM125.221 117.416C123.646 93.9684 115.085 76.8744 102.928 64.6386C90.8681 52.5008 75.5917 45.4595 60.9797 41.4207C46.3545 37.3782 32.103 36.2614 21.7401 36.1754C16.5469 36.1323 12.2752 36.3478 9.35291 36.599C7.90781 36.7232 6.72488 36.8619 5.89579 36.9952C5.57251 37.0472 4.99271 37.1449 4.45136 37.3153C4.30567 37.3611 3.98168 37.4673 3.60355 37.6534C3.41599 37.7457 3.07995 37.9229 2.70314 38.2066C2.39522 38.4385 1.62176 39.0616 1.07263 40.1705C0.385451 41.558 0.221123 43.4135 1.11328 45.1429C1.82566 46.5238 2.89773 47.1902 3.32127 47.4277C4.18938 47.9144 4.98602 48.0404 5.11357 48.0627L7.01073 37.2276C7.09049 37.2415 7.85325 37.3576 8.70117 37.8331C9.11461 38.0649 10.18 38.7252 10.8891 40.0998C11.778 41.8228 11.6138 43.6716 10.9301 45.0521C10.3844 46.154 9.61781 46.7697 9.32009 46.9939C8.95348 47.27 8.63097 47.4392 8.46027 47.5232C8.11585 47.6926 7.83885 47.7811 7.75319 47.808C7.45201 47.9028 7.32133 47.9073 7.64281 47.8556C8.10322 47.7816 8.99228 47.6705 10.2949 47.5586C12.868 47.3374 16.7948 47.1348 21.6489 47.175C31.3807 47.2558 44.6198 48.3112 58.0491 52.0231C71.4915 55.7387 84.8336 62.034 95.1244 72.3916C105.318 82.6513 112.839 97.2117 114.246 118.154L125.221 117.416ZM1.5975 45.8572C3.57848 48.6107 5.56974 53.0359 7.44935 59.1044C9.30373 65.0914 10.9444 72.325 12.3859 80.436C15.2685 96.6557 17.2887 116.003 18.6988 135.142L29.6691 134.334C28.2467 115.028 26.1929 95.2608 23.2162 78.5112C21.7281 70.1377 19.9928 62.423 17.9569 55.8499C15.9462 49.3582 13.5328 43.6115 10.5268 39.4332L1.5975 45.8572ZM18.6988 135.142C22.4984 186.71 68.5738 226.108 123.429 226.108V215.108C73.6155 215.108 32.9944 179.465 29.6691 134.334L18.6988 135.142ZM123.429 226.108H123.585V215.108H123.429V226.108ZM123.585 226.108C178.441 226.108 224.516 186.71 228.315 135.142L217.345 134.334C214.02 179.465 173.399 215.108 123.585 215.108V226.108ZM228.315 135.142C229.726 116.003 231.746 96.6557 234.628 80.436C236.07 72.325 237.711 65.0914 239.565 59.1044C241.445 53.0359 243.436 48.6107 245.417 45.8572L236.488 39.4332C233.482 43.6115 231.068 49.3582 229.057 55.8499C227.022 62.423 225.286 70.1377 223.798 78.5113C220.821 95.2608 218.768 115.028 217.345 134.334L228.315 135.142ZM241.095 48.1433C241.316 48.1375 241.607 48.1228 241.928 48.0809C242.146 48.0524 242.82 47.9614 243.58 47.6275C243.947 47.4664 244.766 47.0661 245.518 46.2192C246.411 45.2127 247.141 43.6119 246.851 41.711C246.604 40.0966 245.734 39.0781 245.315 38.6529C244.851 38.1818 244.402 37.8933 244.158 37.7487C243.34 37.2631 242.507 37.0576 242.277 36.9989C241.861 36.8928 241.414 36.8058 240.97 36.7333C239.212 36.4463 236.488 36.2245 233.007 36.2575C225.994 36.3242 215.527 37.4292 203.017 41.434C177.893 49.4773 144.861 69.1126 115.125 114.784L124.343 120.786C152.73 77.187 183.714 59.1637 206.371 51.9103C217.752 48.2668 227.117 47.314 233.112 47.257C236.136 47.2283 238.209 47.4282 239.197 47.5896C239.312 47.6083 239.401 47.6247 239.466 47.6378C239.533 47.6512 239.562 47.6586 239.56 47.658C239.558 47.6575 239.542 47.6534 239.514 47.6453C239.487 47.6374 239.44 47.6229 239.376 47.6005C239.305 47.5758 238.966 47.4586 238.546 47.2093C238.34 47.0873 237.92 46.8205 237.477 46.3703C237.079 45.966 236.22 44.9674 235.977 43.372C235.689 41.4899 236.413 39.9071 237.291 38.9173C238.028 38.0873 238.823 37.7027 239.157 37.5559C239.852 37.251 240.424 37.184 240.504 37.1735C240.685 37.1497 240.801 37.1472 240.809 37.147L241.095 48.1433ZM81.8433 56.3675L134.816 10.1441L127.584 1.85587L74.6111 48.0792L81.8433 56.3675ZM127.669 10.2167L182.236 55.9127L189.298 47.4793L134.731 1.78328L127.669 10.2167ZM121.207 105.9L60.3359 202.919L69.6538 208.766L130.524 111.746L121.207 105.9Z" fill="white"/>
</svg>
